<svg width="20" height="20" viewBox="0 0 20 20" fill="none" xmlns="http://www.w3.org/2000/svg">
<path d="M6.45826 2.08337C6.45826 1.91761 6.39241 1.75864 6.2752 1.64143C6.15799 1.52422 5.99902 1.45837 5.83326 1.45837C5.6675 1.45837 5.50852 1.52422 5.39131 1.64143C5.2741 1.75864 5.20826 1.91761 5.20826 2.08337V3.40004C4.00826 3.49587 3.22159 3.73087 2.64326 4.31004C2.06409 4.88837 1.82909 5.67587 1.73242 6.87504H18.2674C18.1708 5.67504 17.9358 4.88837 17.3566 4.31004C16.7783 3.73087 15.9908 3.49587 14.7916 3.39921V2.08337C14.7916 1.91761 14.7257 1.75864 14.6085 1.64143C14.4913 1.52422 14.3323 1.45837 14.1666 1.45837C14.0008 1.45837 13.8419 1.52422 13.7246 1.64143C13.6074 1.75864 13.5416 1.91761 13.5416 2.08337V3.34421C12.9874 3.33337 12.3658 3.33337 11.6666 3.33337H8.33326C7.63409 3.33337 7.01242 3.33337 6.45826 3.34421V2.08337Z" fill="white"/>
<path fill-rule="evenodd" clip-rule="evenodd" d="M1.6665 10C1.6665 9.30083 1.6665 8.67917 1.67734 8.125H18.3223C18.3332 8.67917 18.3332 9.30083 18.3332 10V11.6667C18.3332 14.8092 18.3332 16.3808 17.3565 17.3567C16.3807 18.3333 14.809 18.3333 11.6665 18.3333H8.33317C5.19067 18.3333 3.619 18.3333 2.64317 17.3567C1.6665 16.3808 1.6665 14.8092 1.6665 11.6667V10ZM14.1665 11.6667C14.3875 11.6667 14.5995 11.5789 14.7558 11.4226C14.912 11.2663 14.9998 11.0543 14.9998 10.8333C14.9998 10.6123 14.912 10.4004 14.7558 10.2441C14.5995 10.0878 14.3875 10 14.1665 10C13.9455 10 13.7335 10.0878 13.5772 10.2441C13.421 10.4004 13.3332 10.6123 13.3332 10.8333C13.3332 11.0543 13.421 11.2663 13.5772 11.4226C13.7335 11.5789 13.9455 11.6667 14.1665 11.6667ZM14.1665 15C14.3875 15 14.5995 14.9122 14.7558 14.7559C14.912 14.5996 14.9998 14.3877 14.9998 14.1667C14.9998 13.9457 14.912 13.7337 14.7558 13.5774C14.5995 13.4211 14.3875 13.3333 14.1665 13.3333C13.9455 13.3333 13.7335 13.4211 13.5772 13.5774C13.421 13.7337 13.3332 13.9457 13.3332 14.1667C13.3332 14.3877 13.421 14.5996 13.5772 14.7559C13.7335 14.9122 13.9455 15 14.1665 15ZM10.8332 10.8333C10.8332 11.0543 10.7454 11.2663 10.5891 11.4226C10.4328 11.5789 10.2209 11.6667 9.99984 11.6667C9.77882 11.6667 9.56686 11.5789 9.41058 11.4226C9.2543 11.2663 9.1665 11.0543 9.1665 10.8333C9.1665 10.6123 9.2543 10.4004 9.41058 10.2441C9.56686 10.0878 9.77882 10 9.99984 10C10.2209 10 10.4328 10.0878 10.5891 10.2441C10.7454 10.4004 10.8332 10.6123 10.8332 10.8333ZM10.8332 14.1667C10.8332 14.3877 10.7454 14.5996 10.5891 14.7559C10.4328 14.9122 10.2209 15 9.99984 15C9.77882 15 9.56686 14.9122 9.41058 14.7559C9.2543 14.5996 9.1665 14.3877 9.1665 14.1667C9.1665 13.9457 9.2543 13.7337 9.41058 13.5774C9.56686 13.4211 9.77882 13.3333 9.99984 13.3333C10.2209 13.3333 10.4328 13.4211 10.5891 13.5774C10.7454 13.7337 10.8332 13.9457 10.8332 14.1667ZM5.83317 11.6667C6.05418 11.6667 6.26615 11.5789 6.42243 11.4226C6.57871 11.2663 6.6665 11.0543 6.6665 10.8333C6.6665 10.6123 6.57871 10.4004 6.42243 10.2441C6.26615 10.0878 6.05418 10 5.83317 10C5.61216 10 5.4002 10.0878 5.24392 10.2441C5.08763 10.4004 4.99984 10.6123 4.99984 10.8333C4.99984 11.0543 5.08763 11.2663 5.24392 11.4226C5.4002 11.5789 5.61216 11.6667 5.83317 11.6667ZM5.83317 15C6.05418 15 6.26615 14.9122 6.42243 14.7559C6.57871 14.5996 6.6665 14.3877 6.6665 14.1667C6.6665 13.9457 6.57871 13.7337 6.42243 13.5774C6.26615 13.4211 6.05418 13.3333 5.83317 13.3333C5.61216 13.3333 5.4002 13.4211 5.24392 13.5774C5.08763 13.7337 4.99984 13.9457 4.99984 14.1667C4.99984 14.3877 5.08763 14.5996 5.24392 14.7559C5.4002 14.9122 5.61216 15 5.83317 15Z" fill="white"/>
</svg>
