<svg width="20" height="20" viewBox="0 0 20 20" fill="none" xmlns="http://www.w3.org/2000/svg">
<path d="M5.83301 8.05575C5.83301 7.46631 6.06716 6.90101 6.48396 6.48421C6.90076 6.06741 7.46606 5.83325 8.05551 5.83325H15.2772C15.569 5.83325 15.858 5.89074 16.1277 6.00243C16.3973 6.11412 16.6423 6.27783 16.8487 6.48421C17.0551 6.69059 17.2188 6.93559 17.3305 7.20524C17.4422 7.47488 17.4997 7.76389 17.4997 8.05575V15.2774C17.4997 15.5693 17.4422 15.8583 17.3305 16.1279C17.2188 16.3976 17.0551 16.6426 16.8487 16.849C16.6423 17.0553 16.3973 17.2191 16.1277 17.3307C15.858 17.4424 15.569 17.4999 15.2772 17.4999H8.05551C7.76364 17.4999 7.47464 17.4424 7.20499 17.3307C6.93535 17.2191 6.69034 17.0553 6.48396 16.849C6.27758 16.6426 6.11388 16.3976 6.00219 16.1279C5.89049 15.8583 5.83301 15.5693 5.83301 15.2774V8.05575Z" stroke="white" stroke-width="1.73611" stroke-linecap="round" stroke-linejoin="round"/>
<path d="M3.34333 13.9475C3.08778 13.8018 2.87523 13.5912 2.72715 13.3371C2.57906 13.0829 2.50071 12.7942 2.5 12.5V4.16667C2.5 3.25 3.25 2.5 4.16667 2.5H12.5C13.125 2.5 13.465 2.82083 13.75 3.33333" stroke="white" stroke-width="1.73611" stroke-linecap="round" stroke-linejoin="round"/>
</svg>
