<svg width="25" height="25" viewBox="0 0 25 25" fill="none" xmlns="http://www.w3.org/2000/svg">
<path d="M12.5002 2.08325C6.75016 2.08325 2.0835 6.74992 2.0835 12.4999C2.0835 18.2499 6.75016 22.9166 12.5002 22.9166C18.2502 22.9166 22.9168 18.2499 22.9168 12.4999C22.9168 6.74992 18.2502 2.08325 12.5002 2.08325ZM17.3335 9.16659C17.1772 10.8124 16.5002 14.8124 16.1564 16.6562C16.0106 17.4374 15.7189 17.6978 15.4481 17.7291C14.8439 17.7812 14.3856 17.3333 13.8022 16.9478C12.8856 16.3437 12.3647 15.9687 11.4793 15.3853C10.4481 14.7083 11.1147 14.3333 11.7085 13.7291C11.8647 13.5728 14.5314 11.1458 14.5835 10.927C14.5907 10.8939 14.5898 10.8595 14.5807 10.8268C14.5716 10.7941 14.5547 10.7642 14.5314 10.7395C14.4689 10.6874 14.3856 10.7083 14.3127 10.7187C14.2189 10.7395 12.7606 11.7083 9.91683 13.6249C9.50016 13.9062 9.12516 14.052 8.79183 14.0416C8.41683 14.0312 7.7085 13.8333 7.17725 13.6562C6.521 13.4478 6.01058 13.3333 6.05225 12.9687C6.07308 12.7812 6.3335 12.5937 6.82308 12.3958C9.86475 11.0728 11.8856 10.1978 12.896 9.78117C15.7918 8.57284 16.3856 8.3645 16.7814 8.3645C16.8647 8.3645 17.0627 8.38533 17.1877 8.4895C17.2918 8.57283 17.3231 8.68742 17.3335 8.77075C17.3231 8.83325 17.3439 9.02075 17.3335 9.16659Z" fill="white"/>
</svg>
