<svg width="25" height="25" viewBox="0 0 25 25" fill="none" xmlns="http://www.w3.org/2000/svg">
<path d="M21.5586 11.5571C21.5604 11.5571 21.5617 11.5571 21.5634 11.5571C21.6852 11.5571 21.8014 11.506 21.8839 11.4165C21.9677 11.3257 22.0092 11.2039 21.9983 11.0808C21.5599 6.25925 17.7429 2.44064 12.9212 2.00141C12.7989 1.9918 12.6758 2.03153 12.585 2.1158C12.4942 2.19963 12.4436 2.31795 12.4449 2.44151C12.5208 8.84924 13.3661 11.4676 21.5586 11.5571ZM21.5586 12.4426C13.3661 12.5321 12.5213 15.1504 12.4453 21.5581C12.444 21.6817 12.4946 21.8 12.5855 21.8839C12.6667 21.9585 12.7728 22 12.8819 22C12.895 22 12.9085 21.9996 12.9216 21.9983C17.7433 21.559 21.5604 17.7408 21.9983 12.9189C22.0092 12.7958 21.9681 12.674 21.8839 12.5831C21.7996 12.4923 21.6822 12.4474 21.5586 12.4426ZM11.0495 2.00359C6.24316 2.45548 2.4383 6.27322 2.00215 11.0816C1.99124 11.2048 2.03228 11.3266 2.11654 11.4174C2.19905 11.5069 2.31562 11.5575 2.43699 11.5575C2.43874 11.5575 2.44049 11.5575 2.44223 11.5575C10.6077 11.4637 11.4508 8.84662 11.5276 2.44326C11.5289 2.3197 11.4778 2.20094 11.387 2.11711C11.2953 2.03328 11.1727 1.99224 11.0495 2.00359ZM2.4418 12.4421C2.30602 12.4268 2.19949 12.4915 2.1161 12.5823C2.03228 12.6731 1.9908 12.7949 2.00172 12.918C2.43787 17.7264 6.24316 21.5442 11.0495 21.9961C11.0631 21.9974 11.077 21.9978 11.0906 21.9978C11.1997 21.9978 11.3054 21.9568 11.3866 21.8821C11.4774 21.7983 11.5285 21.6795 11.5272 21.556C11.4503 15.153 10.6077 12.536 2.4418 12.4421Z" fill="white"/>
</svg>
