<svg width="25" height="25" viewBox="0 0 25 25" fill="none" xmlns="http://www.w3.org/2000/svg">
<path d="M15.7012 2.08325H9.31058C3.471 2.08325 2.0835 3.47179 2.0835 9.29888V15.6905C2.0835 21.528 3.46162 22.9166 9.29912 22.9166H15.6908C21.5283 22.9166 22.9168 21.5385 22.9168 15.701V9.31033C22.9168 3.47075 21.5387 2.08325 15.7012 2.08325ZM18.9022 16.9478H17.3825C16.8075 16.9478 16.6345 16.4822 15.6033 15.451C14.7033 14.5833 14.3231 14.4749 14.095 14.4749C13.7804 14.4749 13.6939 14.5614 13.6939 14.9958V16.3624C13.6939 16.7322 13.5741 16.9489 12.6085 16.9489C11.6714 16.8859 10.7626 16.6012 9.95704 16.1182C9.15149 15.6352 8.47221 14.9677 7.97516 14.1708C6.79513 12.702 5.97406 10.9782 5.57725 9.13638C5.57725 8.90825 5.6637 8.702 6.09808 8.702H7.61787C8.0085 8.702 8.14912 8.87596 8.3012 9.277C9.0387 11.4478 10.297 13.3353 10.8075 13.3353C11.0033 13.3353 11.0887 13.2489 11.0887 12.7603V10.5249C11.0241 9.50513 10.4825 9.41867 10.4825 9.04992C10.4894 8.95266 10.534 8.86193 10.6067 8.79698C10.6794 8.73203 10.7746 8.69796 10.872 8.702H13.2595C13.5856 8.702 13.6939 8.8645 13.6939 9.25513V12.2718C13.6939 12.5978 13.8345 12.7062 13.9325 12.7062C14.1283 12.7062 14.2793 12.5978 14.6377 12.2395C15.4073 11.3009 16.0361 10.2552 16.5043 9.13534C16.5522 9.00082 16.6427 8.88565 16.7622 8.80741C16.8816 8.72917 17.0234 8.69215 17.1658 8.702H18.6856C19.1408 8.702 19.2377 8.93013 19.1408 9.25513C18.5882 10.4931 17.9044 11.6682 17.1012 12.7603C16.9377 13.0103 16.872 13.1405 17.1012 13.4333C17.2522 13.6614 17.7845 14.1062 18.1429 14.5291C18.6636 15.0485 19.096 15.6495 19.4231 16.3083C19.5533 16.7312 19.3356 16.9478 18.9022 16.9478Z" fill="white"/>
</svg>
