<svg width="65" height="65" viewBox="0 0 65 65" fill="none" xmlns="http://www.w3.org/2000/svg">
<path fill-rule="evenodd" clip-rule="evenodd" d="M31.2542 60.534L31.4437 60.6423L31.5196 60.6856C31.8203 60.8482 32.1568 60.9334 32.4986 60.9334C32.8405 60.9334 33.177 60.8482 33.4777 60.6856L33.5535 60.645L33.7458 60.534C33.9101 60.4383 34.1403 60.3001 34.4365 60.1196C35.0242 59.7594 35.8556 59.2258 36.8469 58.5244C39.4487 56.6864 41.8797 54.6179 44.1106 52.344C49.3756 46.9544 54.8438 38.8565 54.8438 28.4375C54.8437 22.5116 52.4897 16.8283 48.2994 12.6381C44.1092 8.44782 38.4259 6.09375 32.5 6.09375C26.5741 6.09375 20.8908 8.44782 16.7006 12.6381C12.5103 16.8283 10.1563 22.5116 10.1562 28.4375C10.1563 38.8537 15.6271 46.9544 20.8894 52.344C23.1203 54.6179 25.5513 56.6864 28.1531 58.5244C29.1595 59.2355 30.194 59.9059 31.2542 60.534ZM32.5 36.5625C34.6549 36.5625 36.7215 35.7065 38.2452 34.1827C39.769 32.659 40.625 30.5924 40.625 28.4375C40.625 26.2826 39.769 24.216 38.2452 22.6923C36.7215 21.1685 34.6549 20.3125 32.5 20.3125C30.3451 20.3125 28.2785 21.1685 26.7548 22.6923C25.231 24.216 24.375 26.2826 24.375 28.4375C24.375 30.5924 25.231 32.659 26.7548 34.1827C28.2785 35.7065 30.3451 36.5625 32.5 36.5625Z" fill="#0090C7"/>
</svg>
