<svg width="35" height="35" viewBox="0 0 35 35" fill="none" xmlns="http://www.w3.org/2000/svg">
<path d="M17.5 2.1875C14.3102 2.19112 11.2521 3.45986 8.99662 5.71537C6.7411 7.97088 5.47237 11.029 5.46875 14.2188C5.46875 24.5137 16.4063 32.2889 16.8725 32.6143C17.0564 32.7431 17.2755 32.8122 17.5 32.8122C17.7245 32.8122 17.9436 32.7431 18.1275 32.6143C18.5937 32.2889 29.5312 24.5137 29.5312 14.2188C29.5276 11.029 28.2589 7.97088 26.0034 5.71537C23.7479 3.45986 20.6898 2.19112 17.5 2.1875ZM17.5 9.84375C18.3653 9.84375 19.2112 10.1003 19.9306 10.5811C20.6501 11.0618 21.2108 11.7451 21.542 12.5445C21.8731 13.3439 21.9597 14.2236 21.7909 15.0723C21.6221 15.9209 21.2054 16.7005 20.5936 17.3123C19.9817 17.9242 19.2022 18.3409 18.3535 18.5097C17.5049 18.6785 16.6252 18.5919 15.8258 18.2607C15.0263 17.9296 14.3431 17.3688 13.8623 16.6494C13.3816 15.9299 13.125 15.084 13.125 14.2188C13.125 13.0584 13.5859 11.9456 14.4064 11.1252C15.2269 10.3047 16.3397 9.84375 17.5 9.84375Z" fill="#0252DD"/>
</svg>
