<svg width="70" height="70" viewBox="0 0 70 70" fill="none" xmlns="http://www.w3.org/2000/svg">
<path fill-rule="evenodd" clip-rule="evenodd" d="M4.92061 4.92061C0 9.84121 0 17.7608 0 33.6V36.4C0 52.2392 0 60.1588 4.92061 65.0794C9.84121 70 17.7608 70 33.6 70H36.4C52.2392 70 60.1588 70 65.0794 65.0794C70 60.1588 70 52.2392 70 36.4V33.6C70 17.7608 70 9.84121 65.0794 4.92061C60.1588 0 52.2392 0 36.4 0H33.6C17.7608 0 9.84121 0 4.92061 4.92061ZM11.8127 21.2918C12.1919 39.4918 21.2918 50.4293 37.246 50.4293H38.1503V40.0168C44.0128 40.6001 48.4458 44.8876 50.225 50.4293H58.5086C56.2336 42.146 50.2541 37.5668 46.5208 35.8168C50.2541 33.6584 55.5041 28.4085 56.7583 21.2918H49.2331C47.5997 27.0668 42.7586 32.3168 38.1503 32.8126V21.2918H30.6251V41.4751C25.9584 40.3084 20.0669 34.6501 19.8044 21.2918H11.8127Z" fill="white"/>
</svg>
