<svg width="72" height="70" viewBox="0 0 72 70" fill="none" xmlns="http://www.w3.org/2000/svg">
<path fill-rule="evenodd" clip-rule="evenodd" d="M5.14761 4.92061C0.15332 9.84121 0.15332 17.7608 0.15332 33.6V36.4C0.15332 52.2392 0.15332 60.1588 5.14761 65.0794C10.1419 70 18.1801 70 34.2565 70H37.0984C53.1748 70 61.213 70 66.2073 65.0794C71.2016 60.1588 71.2016 52.2392 71.2016 36.4V33.6C71.2016 17.7608 71.2016 9.84121 66.2073 4.92061C61.213 0 53.1748 0 37.0984 0H34.2565C18.1801 0 10.1419 0 5.14761 4.92061ZM12.1426 21.2918C12.5274 39.4918 21.7636 50.4293 37.9567 50.4293H38.8746V40.0168C44.8249 40.6001 49.3243 44.8876 51.1301 50.4293H59.5377C57.2286 42.146 51.1596 37.5668 47.3704 35.8168C51.1596 33.6584 56.4883 28.4085 57.7612 21.2918H50.1233C48.4655 27.0668 43.5519 32.3168 38.8746 32.8126V21.2918H31.2367V41.4751C26.5001 40.3084 20.5203 34.6501 20.2539 21.2918H12.1426Z" fill="white"/>
</svg>
