<svg width="35" height="35" viewBox="0 0 35 35" fill="none" xmlns="http://www.w3.org/2000/svg">
<path d="M23.8636 15C26.5045 15 28.6205 12.8225 28.6205 10.125C28.6205 7.4275 26.5045 5.25 23.8636 5.25C21.2227 5.25 19.0909 7.4275 19.0909 10.125C19.0909 12.8225 21.2227 15 23.8636 15ZM11.1364 15C13.7773 15 15.8932 12.8225 15.8932 10.125C15.8932 7.4275 13.7773 5.25 11.1364 5.25C8.49545 5.25 6.36364 7.4275 6.36364 10.125C6.36364 12.8225 8.49545 15 11.1364 15ZM11.1364 18.25C7.42955 18.25 0 20.1512 0 23.9375V26.375C0 27.2687 0.715909 28 1.59091 28H20.6818C21.5568 28 22.2727 27.2687 22.2727 26.375V23.9375C22.2727 20.1512 14.8432 18.25 11.1364 18.25ZM23.8636 18.25C23.4023 18.25 22.8773 18.2825 22.3205 18.3313C22.3523 18.3475 22.3682 18.38 22.3841 18.3962C24.1977 19.745 25.4545 21.5487 25.4545 23.9375V26.375C25.4545 26.9438 25.3432 27.4963 25.1682 28H33.4091C34.2841 28 35 27.2687 35 26.375V23.9375C35 20.1512 27.5705 18.25 23.8636 18.25Z" fill="#0252DD"/>
</svg>
