<svg width="14" height="14" viewBox="0 0 14 14" fill="none" xmlns="http://www.w3.org/2000/svg">
<path d="M7.99805 1L7.99805 6L12.998 6C13.2633 6 13.5176 6.10536 13.7052 6.29289C13.8927 6.48043 13.998 6.73478 13.998 7C13.998 7.26522 13.8927 7.51957 13.7052 7.70711C13.5176 7.89464 13.2633 8 12.998 8H7.99805V13C7.99805 13.2652 7.89269 13.5196 7.70515 13.7071C7.51762 13.8946 7.26326 14 6.99805 14C6.73283 14 6.47848 13.8946 6.29094 13.7071C6.1034 13.5196 5.99805 13.2652 5.99805 13V8H0.998047C0.73283 8 0.478476 7.89464 0.29094 7.70711C0.103403 7.51957 -0.00195313 7.26522 -0.00195312 7C-0.00195313 6.73478 0.103403 6.48043 0.29094 6.29289C0.478476 6.10536 0.73283 6 0.998047 6H5.99805L5.99805 1C5.99805 0.734783 6.1034 0.480429 6.29094 0.292892C6.47848 0.105356 6.73283 0 6.99805 0C7.26326 0 7.51762 0.105356 7.70515 0.292892C7.89269 0.480429 7.99805 0.734783 7.99805 1Z" fill="#0252DD"/>
</svg>
