<svg width="23" height="23" viewBox="0 0 23 23" fill="none" xmlns="http://www.w3.org/2000/svg">
<path d="M3.42601 1.14285C2.8204 1.14285 2.2396 1.38343 1.81138 1.81165C1.38315 2.23988 1.14258 2.82068 1.14258 3.42628V19.4309C1.14258 20.6857 2.17115 21.7143 3.42601 21.7143H19.4306C20.0362 21.7143 20.617 21.4737 21.0452 21.0455C21.4734 20.6173 21.714 20.0365 21.714 19.4309V3.42628C21.714 2.17142 20.6854 1.14285 19.4306 1.14285H3.42601ZM10.3997 3.272V6.49102H12.4569V3.272C14.4441 3.52236 16.2718 4.48895 17.5973 5.99054C18.9228 7.49214 19.655 9.42564 19.6569 11.4286C19.655 13.4315 18.9228 15.365 17.5973 16.8666C16.2718 18.3682 14.4441 19.3348 12.4569 19.5851V16.3653H10.3997V19.5851C8.4125 19.3348 6.58483 18.3682 5.25933 16.8666C3.93383 15.365 3.20154 13.4315 3.19972 11.4286C3.20154 9.42564 3.93383 7.49214 5.25933 5.99054C6.58483 4.48895 8.4125 3.52236 10.3997 3.272ZM6.79972 9.88571C6.39053 9.88571 5.9981 10.0483 5.70876 10.3376C5.41941 10.6269 5.25686 11.0194 5.25686 11.4286C5.25686 12.2823 5.93572 12.9714 6.79972 12.9714C7.20891 12.9714 7.60134 12.8089 7.89069 12.5195C8.18003 12.2302 8.34258 11.8378 8.34258 11.4286C8.34258 11.0194 8.18003 10.6269 7.89069 10.3376C7.60134 10.0483 7.20891 9.88571 6.79972 9.88571ZM16.0569 9.88571C15.6477 9.88571 15.2552 10.0483 14.9659 10.3376C14.6766 10.6269 14.514 11.0194 14.514 11.4286C14.514 11.8378 14.6766 12.2302 14.9659 12.5195C15.2552 12.8089 15.6477 12.9714 16.0569 12.9714C16.4661 12.9714 16.8585 12.8089 17.1478 12.5195C17.4372 12.2302 17.5997 11.8378 17.5997 11.4286C17.5997 11.0194 17.4372 10.6269 17.1478 10.3376C16.8585 10.0483 16.4661 9.88571 16.0569 9.88571Z" fill="#0252DD"/>
</svg>
