<svg width="23" height="23" viewBox="0 0 23 23" fill="none" xmlns="http://www.w3.org/2000/svg">
<path d="M3.71401 6.36327C3.71401 5.55511 4.36088 4.89797 5.15642 4.89797C5.53811 4.89797 5.90374 5.05307 6.17695 5.32654L6.82785 5.98776C5.9841 7.57552 6.12874 9.55919 7.26579 11.0082L7.20954 11.0612C6.83186 11.4449 6.83186 12.0653 7.20954 12.4449C7.58722 12.8245 8.19794 12.8286 8.5716 12.4449L15.0042 5.91837C15.3819 5.5347 15.3819 4.91429 15.0042 4.5347C14.6265 4.15511 14.0158 4.15103 13.6421 4.5347L13.5899 4.58776C12.1636 3.43266 10.2069 3.28572 8.64794 4.14286L7.99302 3.48164C7.24169 2.71429 6.22115 2.28572 5.15642 2.28572C2.93856 2.28572 1.14258 4.11021 1.14258 6.36327V19.2653C1.14258 19.9878 1.71713 20.5714 2.42829 20.5714C3.13945 20.5714 3.71401 19.9878 3.71401 19.2653V6.36327ZM11.4283 15.3469C11.7693 15.3469 12.0963 15.2093 12.3374 14.9644C12.5785 14.7194 12.714 14.3872 12.714 14.0408C12.714 13.6944 12.5785 13.3622 12.3374 13.1173C12.0963 12.8723 11.7693 12.7347 11.4283 12.7347C11.0873 12.7347 10.7603 12.8723 10.5192 13.1173C10.278 13.3622 10.1426 13.6944 10.1426 14.0408C10.1426 14.3872 10.278 14.7194 10.5192 14.9644C10.7603 15.2093 11.0873 15.3469 11.4283 15.3469ZM13.9997 17.9592C13.9997 17.6128 13.8643 17.2806 13.6231 17.0356C13.382 16.7907 13.055 16.6531 12.714 16.6531C12.373 16.6531 12.046 16.7907 11.8049 17.0356C11.5638 17.2806 11.4283 17.6128 11.4283 17.9592C11.4283 18.3056 11.5638 18.6378 11.8049 18.8828C12.046 19.1277 12.373 19.2653 12.714 19.2653C13.055 19.2653 13.382 19.1277 13.6231 18.8828C13.8643 18.6378 13.9997 18.3056 13.9997 17.9592ZM13.9997 12.7347C14.3407 12.7347 14.6677 12.5971 14.9089 12.3521C15.15 12.1072 15.2854 11.775 15.2854 11.4286C15.2854 11.0822 15.15 10.75 14.9089 10.505C14.6677 10.2601 14.3407 10.1225 13.9997 10.1225C13.6587 10.1225 13.3317 10.2601 13.0906 10.505C12.8495 10.75 12.714 11.0822 12.714 11.4286C12.714 11.775 12.8495 12.1072 13.0906 12.3521C13.3317 12.5971 13.6587 12.7347 13.9997 12.7347ZM16.5711 15.3469C16.5711 15.0005 16.4357 14.6683 16.1946 14.4234C15.9535 14.1784 15.6264 14.0408 15.2854 14.0408C14.9444 14.0408 14.6174 14.1784 14.3763 14.4234C14.1352 14.6683 13.9997 15.0005 13.9997 15.3469C13.9997 15.6934 14.1352 16.0256 14.3763 16.2705C14.6174 16.5155 14.9444 16.6531 15.2854 16.6531C15.6264 16.6531 15.9535 16.5155 16.1946 16.2705C16.4357 16.0256 16.5711 15.6934 16.5711 15.3469ZM16.5711 10.1225C16.9121 10.1225 17.2392 9.98485 17.4803 9.7399C17.7214 9.49496 17.8569 9.16274 17.8569 8.81633C17.8569 8.46993 17.7214 8.13771 17.4803 7.89277C17.2392 7.64782 16.9121 7.51021 16.5711 7.51021C16.2302 7.51021 15.9031 7.64782 15.662 7.89277C15.4209 8.13771 15.2854 8.46993 15.2854 8.81633C15.2854 9.16274 15.4209 9.49496 15.662 9.7399C15.9031 9.98485 16.2302 10.1225 16.5711 10.1225ZM19.1426 12.7347C19.1426 12.3883 19.0071 12.0561 18.766 11.8111C18.5249 11.5662 18.1979 11.4286 17.8569 11.4286C17.5159 11.4286 17.1888 11.5662 16.9477 11.8111C16.7066 12.0561 16.5711 12.3883 16.5711 12.7347C16.5711 13.0811 16.7066 13.4133 16.9477 13.6583C17.1888 13.9032 17.5159 14.0408 17.8569 14.0408C18.1979 14.0408 18.5249 13.9032 18.766 13.6583C19.0071 13.4133 19.1426 13.0811 19.1426 12.7347ZM20.4283 11.4286C20.7693 11.4286 21.0963 11.291 21.3374 11.046C21.5785 10.8011 21.714 10.4689 21.714 10.1225C21.714 9.77605 21.5785 9.44383 21.3374 9.19889C21.0963 8.95394 20.7693 8.81633 20.4283 8.81633C20.0873 8.81633 19.7603 8.95394 19.5192 9.19889C19.278 9.44383 19.1426 9.77605 19.1426 10.1225C19.1426 10.4689 19.278 10.8011 19.5192 11.046C19.7603 11.291 20.0873 11.4286 20.4283 11.4286Z" fill="#0252DD"/>
</svg>
