<svg width="20" height="20" viewBox="0 0 20 20" fill="none" xmlns="http://www.w3.org/2000/svg">
<path d="M10.0004 15.8332C10.2045 15.8332 10.4015 15.9081 10.554 16.0438C10.7066 16.1794 10.804 16.3663 10.8279 16.569L10.8337 16.6665V17.4998C10.8335 17.7122 10.7521 17.9165 10.6063 18.071C10.4605 18.2254 10.2613 18.3184 10.0492 18.3308C9.83718 18.3433 9.6284 18.2743 9.46552 18.1379C9.30264 18.0016 9.19796 17.8083 9.17288 17.5973L9.16705 17.4998V16.6665C9.16705 16.4455 9.25484 16.2335 9.41112 16.0772C9.5674 15.921 9.77936 15.8332 10.0004 15.8332ZM15.2612 14.0915L15.3395 14.1607L15.9229 14.744C16.0723 14.894 16.1591 15.0952 16.1656 15.3068C16.172 15.5184 16.0977 15.7246 15.9577 15.8834C15.8176 16.0422 15.6224 16.1418 15.4116 16.1618C15.2009 16.1819 14.9904 16.121 14.8229 15.9915L14.7445 15.9223L14.1612 15.339C14.0174 15.1954 13.931 15.0043 13.9183 14.8015C13.9055 14.5987 13.9673 14.3983 14.092 14.2378C14.2167 14.0774 14.3957 13.9681 14.5954 13.9304C14.7951 13.8927 15.0016 13.9292 15.1762 14.0332L15.2612 14.0915ZM5.83955 14.1607C5.98303 14.3042 6.06922 14.4951 6.08195 14.6976C6.09469 14.9001 6.03309 15.1003 5.90871 15.2607L5.83955 15.339L5.25621 15.9223C5.10625 16.0718 4.90502 16.1586 4.69339 16.165C4.48177 16.1715 4.27562 16.0972 4.11681 15.9571C3.95801 15.8171 3.85846 15.6219 3.83838 15.4111C3.8183 15.2003 3.8792 14.9898 4.00871 14.8223L4.07788 14.744L4.66121 14.1607C4.81749 14.0044 5.02941 13.9167 5.25038 13.9167C5.47135 13.9167 5.68327 14.0044 5.83955 14.1607ZM3.33371 9.1665C3.54611 9.16674 3.75041 9.24807 3.90485 9.39388C4.0593 9.53968 4.15224 9.73897 4.16469 9.951C4.17714 10.163 4.10815 10.3718 3.97182 10.5347C3.8355 10.6976 3.64213 10.8023 3.43121 10.8273L3.33371 10.8332H2.50038C2.28798 10.8329 2.08369 10.7516 1.92924 10.6058C1.77479 10.46 1.68185 10.2607 1.6694 10.0487C1.65695 9.83664 1.72594 9.62785 1.86227 9.46498C1.99859 9.3021 2.19197 9.19742 2.40288 9.17234L2.50038 9.1665H3.33371ZM17.5004 9.1665C17.7128 9.16674 17.9171 9.24807 18.0715 9.39388C18.226 9.53968 18.3189 9.73897 18.3314 9.951C18.3438 10.163 18.2748 10.3718 18.1385 10.5347C18.0022 10.6976 17.8088 10.8023 17.5979 10.8273L17.5004 10.8332H16.667C16.4546 10.8329 16.2504 10.7516 16.0959 10.6058C15.9415 10.46 15.8485 10.2607 15.8361 10.0487C15.8236 9.83664 15.8926 9.62785 16.0289 9.46498C16.1653 9.3021 16.3586 9.19742 16.5695 9.17234L16.667 9.1665H17.5004ZM5.17788 4.00817L5.25621 4.07734L5.83955 4.66067C5.989 4.81064 6.07577 5.01187 6.08224 5.22349C6.0887 5.43512 6.01437 5.64126 5.87434 5.80007C5.73431 5.95887 5.53909 6.05842 5.32832 6.0785C5.11755 6.09858 4.90704 6.03768 4.73955 5.90817L4.66121 5.839L4.07788 5.25567C3.93462 5.11207 3.84866 4.92115 3.8361 4.7187C3.82355 4.51625 3.88526 4.31617 4.00968 4.15597C4.1341 3.99577 4.31268 3.88644 4.51194 3.8485C4.71119 3.81055 4.91745 3.84658 5.09205 3.94984L5.17788 4.00817ZM15.9229 4.07734C16.0664 4.22083 16.1526 4.41175 16.1653 4.61427C16.178 4.81679 16.1164 5.017 15.992 5.17734L15.9229 5.25567L15.3395 5.839C15.1896 5.98846 14.9883 6.07523 14.7767 6.08169C14.5651 6.08816 14.3589 6.01382 14.2001 5.8738C14.0413 5.73377 13.9418 5.53854 13.9217 5.32778C13.9016 5.11701 13.9625 4.9065 14.092 4.739L14.1612 4.66067L14.7445 4.07734C14.9008 3.92111 15.1127 3.83335 15.3337 3.83335C15.5547 3.83335 15.7666 3.92111 15.9229 4.07734ZM10.0004 1.6665C10.2045 1.66653 10.4015 1.74147 10.554 1.8771C10.7066 2.01273 10.804 2.19963 10.8279 2.40234L10.8337 2.49984V3.33317C10.8335 3.54557 10.7521 3.74986 10.6063 3.90431C10.4605 4.05876 10.2613 4.1517 10.0492 4.16415C9.83718 4.17659 9.6284 4.10761 9.46552 3.97128C9.30264 3.83496 9.19796 3.64158 9.17288 3.43067L9.16705 3.33317V2.49984C9.16705 2.27882 9.25484 2.06686 9.41112 1.91058C9.5674 1.7543 9.77936 1.6665 10.0004 1.6665ZM10.0004 5.83317C10.8168 5.83312 11.6152 6.07291 12.2965 6.52275C12.9778 6.97259 13.5119 7.61267 13.8325 8.36347C14.1531 9.11427 14.2461 9.94273 14.0999 10.7459C13.9538 11.5491 13.5748 12.2917 13.0102 12.8814C12.4456 13.4711 11.7202 13.8819 10.9242 14.0629C10.1281 14.2438 9.29635 14.1869 8.53232 13.8992C7.7683 13.6115 7.10562 13.1057 6.62659 12.4446C6.14757 11.7835 5.87331 10.9963 5.83788 10.1807L5.83371 9.99984L5.83788 9.819C5.88448 8.7463 6.34338 7.73299 7.1189 6.99039C7.89441 6.24779 8.92666 5.83323 10.0004 5.83317Z" fill="url(#paint0_linear_667_1188)"/>
<defs>
<linearGradient id="paint0_linear_667_1188" x1="3.3501" y1="-6.58304" x2="29.6665" y2="19.6476" gradientUnits="userSpaceOnUse">
<stop stop-color="#F07D49"/>
<stop offset="1" stop-color="#FFD15B"/>
</linearGradient>
</defs>
</svg>
