<svg width="62" height="48" viewBox="0 0 62 48" fill="none" xmlns="http://www.w3.org/2000/svg">
<path d="M42.5041 23.9C40.8041 22.9 39.5041 21.55 38.6041 19.85C37.7041 18.15 37.2541 16.25 37.2541 14.15C37.2541 10.25 38.5541 7.05 41.1541 4.55C43.6541 2.05 46.7041 0.800002 50.3041 0.800002C53.6041 0.800002 56.3541 1.9 58.5541 4.1C60.7541 6.3 61.8541 9.1 61.8541 12.5C61.8541 14.2 61.5541 15.85 60.9541 17.45C60.2541 19.15 59.1541 21.3 57.6541 23.9L43.8541 47.3H31.8541L42.5041 23.9ZM10.7041 23.9C9.0041 22.9 7.7041 21.55 6.8041 19.85C5.9041 18.15 5.4541 16.25 5.4541 14.15C5.4541 10.25 6.7541 7.05 9.3541 4.55C11.8541 2.05 14.9041 0.800002 18.5041 0.800002C21.8041 0.800002 24.5541 1.9 26.7541 4.1C28.9541 6.3 30.0541 9.1 30.0541 12.5C30.0541 14.2 29.7541 15.85 29.1541 17.45C28.4541 19.15 27.3541 21.3 25.8541 23.9L12.0541 47.3H0.0540946L10.7041 23.9Z" fill="url(#paint0_linear_616_335)"/>
<defs>
<linearGradient id="paint0_linear_616_335" x1="77.7136" y1="175.635" x2="-148.376" y2="55.7871" gradientUnits="userSpaceOnUse">
<stop stop-color="#F07D49"/>
<stop offset="1" stop-color="#FFD15B"/>
</linearGradient>
</defs>
</svg>
