<svg width="62" height="48" viewBox="0 0 62 48" fill="none" xmlns="http://www.w3.org/2000/svg">
<path d="M19.4959 24.1C21.1959 25.1 22.4959 26.45 23.3959 28.15C24.2959 29.85 24.7459 31.75 24.7459 33.85C24.7459 37.75 23.4459 40.95 20.8459 43.45C18.3459 45.95 15.2959 47.2 11.6959 47.2C8.3959 47.2 5.6459 46.1 3.4459 43.9C1.2459 41.7 0.145899 38.9 0.145899 35.5C0.145899 33.8 0.445899 32.15 1.0459 30.55C1.7459 28.85 2.8459 26.7 4.3459 24.1L18.1459 0.699993H30.1459L19.4959 24.1ZM51.2959 24.1C52.9959 25.1 54.2959 26.45 55.1959 28.15C56.0959 29.85 56.5459 31.75 56.5459 33.85C56.5459 37.75 55.2459 40.95 52.6459 43.45C50.1459 45.95 47.0959 47.2 43.4959 47.2C40.1959 47.2 37.4459 46.1 35.2459 43.9C33.0459 41.7 31.9459 38.9 31.9459 35.5C31.9459 33.8 32.2459 32.15 32.8459 30.55C33.5459 28.85 34.6459 26.7 36.1459 24.1L49.9459 0.699993H61.9459L51.2959 24.1Z" fill="url(#paint0_linear_616_336)"/>
<defs>
<linearGradient id="paint0_linear_616_336" x1="-23.6948" y1="-117.24" x2="205.333" y2="50.9773" gradientUnits="userSpaceOnUse">
<stop stop-color="#F07D49"/>
<stop offset="1" stop-color="#FFD15B"/>
</linearGradient>
</defs>
</svg>
