<svg width="16" height="16" viewBox="0 0 16 16" fill="none" xmlns="http://www.w3.org/2000/svg">
<path fill-rule="evenodd" clip-rule="evenodd" d="M8.00031 9.414L13.6573 15.071C13.8459 15.2532 14.0985 15.3539 14.3607 15.3517C14.6229 15.3494 14.8737 15.2442 15.0591 15.0588C15.2445 14.8734 15.3497 14.6226 15.352 14.3604C15.3543 14.0982 15.2535 13.8456 15.0713 13.657L9.41431 8L15.0713 2.343C15.2535 2.15439 15.3543 1.90179 15.352 1.6396C15.3497 1.3774 15.2445 1.12659 15.0591 0.941178C14.8737 0.75577 14.6229 0.650601 14.3607 0.648323C14.0985 0.646044 13.8459 0.746839 13.6573 0.928997L8.00031 6.586L2.34331 0.928997C2.15386 0.751342 1.90272 0.654362 1.64304 0.658579C1.38336 0.662796 1.1355 0.767878 0.951921 0.951591C0.768338 1.1353 0.663431 1.38323 0.659398 1.64292C0.655365 1.9026 0.752522 2.15367 0.930311 2.343L6.58631 8L0.929311 13.657C0.833801 13.7492 0.757619 13.8596 0.70521 13.9816C0.652801 14.1036 0.625215 14.2348 0.624061 14.3676C0.622907 14.5004 0.648209 14.6321 0.69849 14.755C0.748771 14.8778 0.823024 14.9895 0.916916 15.0834C1.01081 15.1773 1.12246 15.2515 1.24536 15.3018C1.36825 15.3521 1.49993 15.3774 1.63271 15.3762C1.76549 15.3751 1.89671 15.3475 2.01872 15.2951C2.14072 15.2427 2.25106 15.1665 2.34331 15.071L8.00031 9.414Z" fill="#6D6D6D"/>
</svg>
