<svg width="12" height="12" viewBox="0 0 12 12" fill="none" xmlns="http://www.w3.org/2000/svg">
<path d="M10.9479 2.463L7.41234 5.99853L10.9479 9.53407C11.1354 9.7216 11.2408 9.97596 11.2408 10.2412C11.2408 10.5064 11.1354 10.7607 10.9479 10.9483C10.7603 11.1358 10.506 11.2412 10.2408 11.2412C9.97555 11.2412 9.7212 11.1358 9.53366 10.9483L5.99813 7.41275L2.46259 10.9483C2.27506 11.1358 2.0207 11.2412 1.75549 11.2412C1.49027 11.2412 1.23592 11.1358 1.04838 10.9483C0.860844 10.7607 0.755487 10.5064 0.755487 10.2412C0.755487 9.97596 0.860843 9.72161 1.04838 9.53407L4.58391 5.99853L1.04838 2.463C0.860844 2.27546 0.755487 2.02111 0.755487 1.75589C0.755487 1.49068 0.860844 1.23632 1.04838 1.04879C1.23592 0.861251 1.49027 0.755894 1.75549 0.755894C2.0207 0.755895 2.27506 0.861251 2.46259 1.04879L5.99813 4.58432L9.53366 1.04879C9.7212 0.861251 9.97555 0.755894 10.2408 0.755894C10.506 0.755894 10.7603 0.861251 10.9479 1.04879C11.1354 1.23632 11.2408 1.49068 11.2408 1.75589C11.2408 2.02111 11.1354 2.27546 10.9479 2.463Z" fill="white"/>
</svg>
